<svg width="1200" height="1200" viewBox="0 0 1200 1200" fill="none" xmlns="http://www.w3.org/2000/svg">
  <rect width="1200" height="1200" fill="#F4F1E9"/>
  <rect x="84" y="84" width="1032" height="1032" rx="48" fill="#0B6D2F"/>
  <rect x="182" y="156" width="836" height="888" rx="32" fill="#FCFBF7"/>
  <path d="M430 304H770L852 448V874H348V448L430 304Z" fill="#D0C1A1"/>
  <path d="M478 364C522 356 548 406 592 398C646 388 664 446 726 422C760 410 786 446 786 446V822H414V446C414 446 438 372 478 364Z" fill="#0B6D2F"/>
  <path d="M450 538C484 518 516 578 562 560C616 540 636 606 694 586C744 568 766 628 766 628V822H434L450 538Z" fill="#121212"/>
  <rect x="296" y="910" width="608" height="72" rx="36" fill="#D0C1A1"/>
  <text x="600" y="962" text-anchor="middle" font-family="Arial, Helvetica, sans-serif" font-size="44" font-weight="700" fill="#121212">TROOPZ Signature Camo Jacket</text>
</svg>
